<svg width="34" height="34" viewBox="0 0 34 34" fill="none" xmlns="http://www.w3.org/2000/svg">
<g clip-path="url(#clip0_150_739)">
<path d="M23.2292 10.7707C23.0731 10.6134 22.8874 10.4884 22.6828 10.4032C22.4782 10.318 22.2587 10.2741 22.0371 10.2741C21.8154 10.2741 21.596 10.318 21.3914 10.4032C21.1868 10.4884 21.0011 10.6134 20.845 10.7707L17 14.6325L13.1551 10.7707C12.8389 10.4546 12.4101 10.2769 11.963 10.2769C11.5159 10.2769 11.0871 10.4546 10.7709 10.7707C10.4547 11.0869 10.2771 11.5157 10.2771 11.9628C10.2771 12.4099 10.4547 12.8388 10.7709 13.1549L14.6326 16.9999L10.7709 20.8448C10.6135 21.0009 10.4886 21.1866 10.4034 21.3912C10.3181 21.5958 10.2743 21.8152 10.2743 22.0369C10.2743 22.2585 10.3181 22.478 10.4034 22.6826C10.4886 22.8872 10.6135 23.0729 10.7709 23.229C10.927 23.3864 11.1127 23.5113 11.3173 23.5965C11.5219 23.6818 11.7414 23.7256 11.963 23.7256C12.1847 23.7256 12.4041 23.6818 12.6087 23.5965C12.8133 23.5113 12.999 23.3864 13.1551 23.229L17 19.3673L20.845 23.229C21.0011 23.3864 21.1868 23.5113 21.3914 23.5965C21.596 23.6818 21.8154 23.7256 22.0371 23.7256C22.2587 23.7256 22.4782 23.6818 22.6828 23.5965C22.8874 23.5113 23.0731 23.3864 23.2292 23.229C23.3866 23.0729 23.5115 22.8872 23.5967 22.6826C23.6819 22.478 23.7258 22.2585 23.7258 22.0369C23.7258 21.8152 23.6819 21.5958 23.5967 21.3912C23.5115 21.1866 23.3866 21.0009 23.2292 20.8448L19.3675 16.9999L23.2292 13.1549C23.3866 12.9988 23.5115 12.8131 23.5967 12.6085C23.6819 12.4039 23.7258 12.1845 23.7258 11.9628C23.7258 11.7412 23.6819 11.5217 23.5967 11.3171C23.5115 11.1125 23.3866 10.9268 23.2292 10.7707ZM28.8707 5.12924C27.3218 3.52562 25.4691 2.24651 23.4207 1.36655C21.3722 0.486601 19.169 0.0234246 16.9396 0.00405191C14.7102 -0.0153208 12.4993 0.409498 10.4359 1.25372C8.37243 2.09794 6.49778 3.34466 4.92131 4.92113C3.34484 6.4976 2.09813 8.37225 1.2539 10.4357C0.409681 12.4991 -0.0151377 14.7101 0.00423501 16.9394C0.0236077 19.1688 0.486784 21.372 1.36674 23.4205C2.24669 25.4689 3.5258 27.3216 5.12943 28.8705C6.67826 30.4741 8.53096 31.7532 10.5794 32.6332C12.6279 33.5131 14.8311 33.9763 17.0605 33.9957C19.2898 34.015 21.5008 33.5902 23.5642 32.746C25.6277 31.9018 27.5023 30.6551 29.0788 29.0786C30.6552 27.5021 31.902 25.6275 32.7462 23.564C33.5904 21.5006 34.0152 19.2897 33.9959 17.0603C33.9765 14.8309 33.5133 12.6277 32.6334 10.5792C31.7534 8.53078 30.4743 6.67808 28.8707 5.12924ZM26.5033 26.5031C24.3072 28.7016 21.4168 30.0707 18.3244 30.3771C15.2321 30.6835 12.1292 29.9082 9.54443 28.1834C6.95962 26.4586 5.0528 23.8909 4.14884 20.9178C3.24488 17.9447 3.39972 14.7502 4.58696 11.8785C5.77421 9.0068 7.92041 6.63557 10.6599 5.16881C13.3994 3.70204 16.5627 3.2305 19.6109 3.83451C22.6591 4.43853 25.4036 6.08073 27.3767 8.48133C29.3499 10.8819 30.4297 13.8924 30.4321 16.9999C30.4381 18.765 30.094 20.5138 29.4196 22.145C28.7452 23.7762 27.754 25.2575 26.5033 26.5031Z" fill="black"/>
</g>
<defs>
<clipPath id="clip0_150_739">
<rect width="34" height="34" fill="white"/>
</clipPath>
</defs>
</svg>
