<svg width="62" height="60" viewBox="0 0 62 60" fill="none" xmlns="http://www.w3.org/2000/svg">
<g clip-path="url(#clip0_68_4748)">
<g opacity="0.98">
<path d="M62 30C62 46.5675 48.1198 60 31 60C13.8802 60 0 46.5675 0 30C0 13.4325 13.8802 0 31 0C48.1198 0 62 13.4325 62 30Z" fill="#FF0000"/>
<path d="M23.903 15.4648C23.5813 15.4648 23.2578 15.778 23.2578 16.2467C23.2578 16.5598 23.5813 16.8711 23.903 16.8711C24.3873 16.8711 24.8717 17.3398 24.8717 17.8086C24.8717 18.2773 24.3873 18.7461 23.903 18.7461H23.7422C22.4498 18.7461 21.4811 19.6836 21.4811 20.9361C21.4811 22.1848 22.4498 23.1242 23.7422 23.1242C24.2265 23.1242 24.7109 23.593 24.7109 24.0617C24.7109 24.5305 24.2265 24.9992 23.7422 24.9992C23.5749 25.0106 23.4175 25.08 23.299 25.1947C23.1804 25.3094 23.1087 25.4617 23.097 25.6236C23.097 25.9367 23.4186 26.2498 23.7422 26.2498C25.0345 26.2498 26.0032 25.3123 26.0032 24.0617C26.0032 22.8111 25.0345 21.8736 23.7422 21.8736H23.5813C23.097 21.8736 22.6126 21.4048 22.6126 20.9361C22.6126 20.4673 22.9342 19.9986 23.4186 19.9986H23.5813C24.8717 19.9986 25.8424 19.0611 25.8424 17.8105C25.8424 16.5598 25.1953 15.4667 23.9049 15.4667L23.903 15.4648ZM29.8782 15.4648C29.5566 15.4648 29.233 15.778 29.3938 16.2467C29.3938 16.5598 29.7174 16.8711 30.041 16.8711C30.5253 16.8711 31.0097 17.3398 31.0097 17.8086C31.0097 18.2773 30.5253 18.7461 30.041 18.7461H29.8782C28.5878 18.7461 27.6172 19.6836 27.6172 20.9361C27.6172 22.1848 28.5859 23.1242 29.8782 23.1242C30.3626 23.1242 30.847 23.593 30.847 24.0617C30.847 24.5305 30.3626 24.9992 29.8782 24.9992C29.711 25.0106 29.5536 25.08 29.4351 25.1947C29.3165 25.3094 29.2448 25.4617 29.233 25.6236C29.233 25.9367 29.5566 26.2498 29.8782 26.2498C31.1705 26.2498 32.1393 25.3123 32.1393 24.0617C32.1393 22.8111 31.1705 21.8736 29.8782 21.8736H29.7174C29.233 21.8736 28.7487 21.4048 28.7487 20.9361C28.7487 20.4673 29.0722 19.9986 29.7174 19.9986H29.8782C31.1705 19.9986 32.1393 19.0611 32.1393 17.8105C32.1393 16.5598 31.3333 15.4648 29.8782 15.4648ZM36.3378 15.4648C36.0162 15.4648 35.6927 15.778 35.8535 16.2467C35.8535 16.5598 36.177 16.8711 36.5006 16.8711C36.985 16.8711 37.4693 17.3398 37.4693 17.8086C37.4693 18.2773 36.985 18.7461 36.5006 18.7461H36.3378C35.0475 18.7461 34.0787 19.6836 34.0787 20.9361C34.0787 22.1848 35.0475 23.1242 36.3378 23.1242C36.8222 23.1242 37.3066 23.593 37.3066 24.0617C37.3066 24.5305 36.8222 24.9992 36.3378 24.9992C36.1706 25.0106 36.0132 25.08 35.8947 25.1947C35.7761 25.3094 35.7044 25.4617 35.6927 25.6236C35.6927 25.9367 36.0162 26.2498 36.3378 26.2498C37.6302 26.2498 38.5989 25.3123 38.5989 24.0617C38.5989 22.8111 37.6302 21.8736 36.3378 21.8736H36.177C35.6927 21.8736 35.2083 21.4048 35.2083 20.9361C35.2083 20.4673 35.6927 19.9986 36.177 19.9986H36.5006C37.7929 19.9986 38.7617 19.0611 38.7617 17.8105C38.7617 16.5598 37.7929 15.4667 36.3398 15.4667C36.5006 15.4667 36.5006 15.4667 36.3398 15.4667L36.3378 15.4648ZM46.998 18.4348C46.6744 18.4348 46.3508 18.4348 46.19 18.5905C44.8977 18.9036 43.2838 19.9967 42.1523 22.1848C40.86 24.9973 39.5677 26.0923 38.5989 26.7186C38.1145 26.8742 37.7929 27.0298 37.3085 27.1873C36.5006 27.343 35.8554 27.343 34.8867 27.343H15.5039C15.1803 27.4986 15.0195 27.6561 15.0195 27.9673V30.7817C16.3118 35.158 19.5417 38.908 23.901 40.6255V43.9105C23.901 44.2236 24.2246 44.5367 24.5482 44.5367H36.1751C36.343 44.5257 36.5011 44.4562 36.6201 44.3411C36.7391 44.2259 36.8109 44.0729 36.8222 43.9105V40.6292C40.858 38.9098 44.2506 35.3155 45.541 30.7836C45.541 30.6261 45.7037 30.6261 45.7037 30.4705V27.9692C45.6919 27.8071 45.6199 27.6545 45.501 27.5398C45.382 27.425 45.2242 27.3558 45.0566 27.3448H41.0208C42.1503 26.7205 42.9583 25.9386 43.6035 25.1567C45.2193 23.2817 46.1881 21.5623 49.7415 21.2492H51.679C52.0025 21.4067 52.3242 21.2492 52.4869 21.0936C52.5596 20.9259 52.5668 20.7384 52.5073 20.566C52.4478 20.3935 52.3255 20.2479 52.1633 20.1561C51.1946 19.5298 49.0943 18.1236 46.996 18.4367L46.998 18.4348ZM16.4746 28.5936H44.7369V29.8442H16.4746V28.5936Z" fill="white"/>
</g>
</g>
<defs>
<clipPath id="clip0_68_4748">
<rect width="62" height="60" fill="white"/>
</clipPath>
</defs>
</svg>
