<svg width="26" height="32" viewBox="0 0 26 32" fill="none" xmlns="http://www.w3.org/2000/svg">
<g clip-path="url(#clip0_208_553)">
<path d="M24.2219 11.4242L23.6745 26.999C23.6279 28.3329 23.0301 29.5972 22.0082 30.5236C20.9862 31.45 19.6205 31.9655 18.2008 31.9608H7.80081C6.38206 31.9655 5.0171 31.4507 3.99529 30.5254C2.97348 29.6001 2.37514 28.3371 2.32712 27.0041L1.77976 11.4242C1.76778 11.083 1.90047 10.7513 2.14863 10.5021C2.39679 10.2529 2.74009 10.1065 3.10302 10.0953C3.46595 10.084 3.81877 10.2088 4.08387 10.442C4.34896 10.6753 4.50462 10.9981 4.5166 11.3393L5.06397 26.9179C5.09122 27.583 5.39156 28.2122 5.90189 28.6735C6.41222 29.1348 7.09284 29.3922 7.80081 29.3918H18.2008C18.9097 29.3922 19.5911 29.1341 20.1016 28.6717C20.612 28.2093 20.9118 27.5788 20.9376 26.9128L21.485 11.3393C21.497 10.9981 21.6527 10.6753 21.9178 10.442C22.1828 10.2088 22.5357 10.084 22.8986 10.0953C23.2615 10.1065 23.6048 10.2529 23.853 10.5021C24.1012 10.7513 24.2338 11.083 24.2219 11.4242ZM26.0323 6.24112C26.0323 6.58231 25.8881 6.90952 25.6315 7.15077C25.3749 7.39202 25.0268 7.52755 24.6639 7.52755H1.33912C0.976196 7.52755 0.628133 7.39202 0.371504 7.15077C0.114875 6.90952 -0.0292969 6.58231 -0.0292969 6.24112C-0.0292969 5.89994 0.114875 5.57273 0.371504 5.33148C0.628133 5.09023 0.976196 4.95469 1.33912 4.95469H5.58123C6.01481 4.95579 6.43332 4.8052 6.75531 4.53222C7.0773 4.25925 7.27974 3.88342 7.32323 3.47787C7.42421 2.52653 7.89832 1.64461 8.65319 1.00394C9.40806 0.363267 10.3896 0.00973282 11.4066 0.0122201H14.595C15.612 0.00973282 16.5936 0.363267 17.3484 1.00394C18.1033 1.64461 18.5774 2.52653 18.6784 3.47787C18.7219 3.88342 18.9243 4.25925 19.2463 4.53222C19.5683 4.8052 19.9868 4.95579 20.4204 4.95469H24.6625C25.0254 4.95469 25.3735 5.09023 25.6301 5.33148C25.8867 5.57273 26.0309 5.89994 26.0309 6.24112H26.0323ZM9.69881 4.95469H16.3055C16.1257 4.56843 16.0081 4.15914 15.9566 3.7403C15.9227 3.42321 15.7648 3.12923 15.5135 2.91533C15.2622 2.70142 14.9354 2.58283 14.5964 2.58251H11.408C11.069 2.58283 10.7422 2.70142 10.4909 2.91533C10.2396 3.12923 10.0817 3.42321 10.0478 3.7403C9.9958 4.15921 9.8791 4.5685 9.69881 4.95469ZM11.0768 24.4454V13.4915C11.0768 13.1503 10.9326 12.8231 10.676 12.5818C10.4194 12.3406 10.0713 12.205 9.70839 12.205C9.34546 12.205 8.9974 12.3406 8.74077 12.5818C8.48414 12.8231 8.33997 13.1503 8.33997 13.4915V24.4506C8.33997 24.7918 8.48414 25.119 8.74077 25.3602C8.9974 25.6015 9.34546 25.737 9.70839 25.737C10.0713 25.737 10.4194 25.6015 10.676 25.3602C10.9326 25.119 11.0768 24.7918 11.0768 24.4506V24.4454ZM17.6644 24.4454V13.4915C17.6644 13.1503 17.5202 12.8231 17.2636 12.5818C17.007 12.3406 16.6589 12.205 16.296 12.205C15.933 12.205 15.585 12.3406 15.3283 12.5818C15.0717 12.8231 14.9275 13.1503 14.9275 13.4915V24.4506C14.9275 24.7918 15.0717 25.119 15.3283 25.3602C15.585 25.6015 15.933 25.737 16.296 25.737C16.6589 25.737 17.007 25.6015 17.2636 25.3602C17.5202 25.119 17.6644 24.7918 17.6644 24.4506V24.4454Z" fill="black"/>
</g>
<defs>
<clipPath id="clip0_208_553">
<rect width="26" height="32" rx="5" fill="white"/>
</clipPath>
</defs>
</svg>
