<svg width="26" height="26" viewBox="0 0 26 26" fill="none" xmlns="http://www.w3.org/2000/svg">
<g clip-path="url(#clip0_208_555)">
<path d="M3.79167 26H20.0417C21.0488 25.9971 22.0137 25.5948 22.7246 24.8813C23.4354 24.1678 23.8342 23.2014 23.8333 22.1943V14.0292C23.8333 13.7419 23.7192 13.4663 23.516 13.2631C23.3129 13.06 23.0373 12.9458 22.75 12.9458C22.4627 12.9458 22.1871 13.06 21.984 13.2631C21.7808 13.4663 21.6667 13.7419 21.6667 14.0292V22.1943C21.6681 22.627 21.4978 23.0426 21.1932 23.3499C20.8885 23.6572 20.4744 23.831 20.0417 23.8333H3.79167C3.35896 23.831 2.94483 23.6572 2.64017 23.3499C2.33552 23.0426 2.16523 22.627 2.16667 22.1943V5.97242C2.16523 5.53971 2.33552 5.12409 2.64017 4.8168C2.94483 4.50951 3.35896 4.33563 3.79167 4.33334H11.9167C12.204 4.33334 12.4795 4.2192 12.6827 4.01604C12.8859 3.81287 13 3.53732 13 3.25001C13 2.96269 12.8859 2.68714 12.6827 2.48397C12.4795 2.28081 12.204 2.16667 11.9167 2.16667H3.79167C2.7845 2.16954 1.81961 2.57187 1.10875 3.28537C0.397888 3.99887 -0.000863515 4.96525 1.40412e-06 5.97242V22.1943C-0.000863515 23.2014 0.397888 24.1678 1.10875 24.8813C1.81961 25.5948 2.7845 25.9971 3.79167 26Z" fill="black"/>
<path d="M10.2409 11.4227L9.38616 15.3378C9.34747 15.5154 9.35408 15.6999 9.40538 15.8743C9.45669 16.0486 9.55104 16.2073 9.67974 16.3356C9.81022 16.4607 9.96893 16.5525 10.1424 16.6032C10.3159 16.654 10.4991 16.6621 10.6764 16.627L14.5829 15.7701C14.7857 15.7255 14.9715 15.6236 15.1181 15.4765L24.9916 5.60301C25.2934 5.30121 25.5329 4.94291 25.6962 4.54856C25.8596 4.15422 25.9437 3.73156 25.9437 3.30472C25.9437 2.87787 25.8596 2.45521 25.6962 2.06087C25.5329 1.66652 25.2934 1.30822 24.9916 1.00642C24.3728 0.415071 23.5498 0.0850677 22.6938 0.0850677C21.8379 0.0850677 21.0149 0.415071 20.3961 1.00642L10.5377 10.8897C10.3898 11.0352 10.2867 11.2202 10.2409 11.4227ZM21.9279 2.53934C22.134 2.34189 22.4084 2.23167 22.6938 2.23167C22.9792 2.23167 23.2536 2.34189 23.4597 2.53934C23.6602 2.74369 23.7724 3.01849 23.7724 3.30472C23.7724 3.59094 23.6602 3.86574 23.4597 4.07009L22.6938 4.83601L21.162 3.30417L21.9279 2.53934ZM12.2862 12.1962L19.6247 4.83926L21.1414 6.36351L13.7997 13.7226L11.8551 14.1494L12.2862 12.1962Z" fill="black"/>
</g>
<defs>
<clipPath id="clip0_208_555">
<rect width="26" height="26" fill="white"/>
</clipPath>
</defs>
</svg>
