<svg width="20" height="28" viewBox="0 0 20 28" fill="none" xmlns="http://www.w3.org/2000/svg">
<g clip-path="url(#clip0_71_4858)">
<path d="M19.9837 10.1281C19.8115 4.79552 15.6966 0.365169 10.621 0.0375225C4.81575 -0.342357 -0.0106201 4.50111 -0.0106201 10.4937C-0.0106201 13.3713 1.08155 16.0542 3.06194 18.0486C5.65618 20.658 7.78717 24.0163 9.06237 27.3518C9.40013 28.2353 10.5982 28.2391 10.9412 27.3578C12.2418 24.0162 14.3703 20.6358 16.9519 18.0105C18.9731 15.9593 20.0789 13.0816 19.9837 10.1281ZM9.99108 15.5604C7.32637 15.5604 5.15564 13.2858 5.15564 10.4937C5.15564 7.7016 7.32637 5.43182 9.99108 5.43182C12.6558 5.43182 14.822 7.7016 14.822 10.4937C14.822 13.2858 12.6558 15.5604 9.99108 15.5604Z" fill="black"/>
<path d="M10.0014 13.1082C8.49829 13.1082 7.27563 11.8511 7.27563 10.3061C7.27563 8.76315 8.49825 7.50781 10.0014 7.50781C11.5023 7.50781 12.7231 8.76315 12.7231 10.3061C12.7231 11.8511 11.5023 13.1082 10.0014 13.1082Z" fill="black"/>
</g>
<defs>
<clipPath id="clip0_71_4858">
<rect width="20" height="28" fill="white"/>
</clipPath>
</defs>
</svg>
