<svg width="32" height="26" viewBox="0 0 32 26" fill="none" xmlns="http://www.w3.org/2000/svg">
<g clip-path="url(#clip0_101_1829)">
<mask id="mask0_101_1829" style="mask-type:luminance" maskUnits="userSpaceOnUse" x="-3" y="-5" width="36" height="34">
<path d="M23.2984 -4.5213L-2.13379 16.0615L6.92969 28.6394L32.3619 8.05658L23.2984 -4.5213Z" fill="white"/>
</mask>
<g mask="url(#mask0_101_1829)">
<path d="M12.8438 23.869C15.5429 21.6847 16.4176 17.8876 15.2046 14.6721L21.2016 9.81853L23.03 12.3559C23.7047 13.2921 24.967 13.4757 25.8448 12.7653C26.7144 12.0615 26.8796 10.7227 26.205 9.78643L24.3765 7.24894L25.8696 6.04055L27.6981 8.57799C28.3728 9.51422 29.6349 9.6978 30.5128 8.98743C31.3907 8.27696 31.5558 6.93807 30.8812 6.00183L27.8296 1.76691C27.1549 0.83068 25.8927 0.647097 25.0148 1.35753L12.7582 11.2771C10.1504 9.19035 6.46369 9.08488 3.76459 11.2693C0.507634 13.9053 -0.10571 18.876 2.39738 22.3497C4.90049 25.8235 9.58684 26.505 12.8438 23.869ZM6.21094 14.6643C7.71226 13.4493 9.8741 13.7636 11.0279 15.3649C12.1817 16.966 11.8988 19.2591 10.3975 20.4741C8.89618 21.6892 6.73433 21.3747 5.58051 19.7736C4.4267 18.1723 4.70963 15.8794 6.21094 14.6643Z" fill="black"/>
</g>
</g>
<defs>
<clipPath id="clip0_101_1829">
<rect width="32" height="26" fill="white"/>
</clipPath>
</defs>
</svg>
