<svg width="40" height="32" viewBox="0 0 40 32" fill="none" xmlns="http://www.w3.org/2000/svg">
<path d="M9.8727 29.1356L8.71299 31.43C8.69867 28.4041 8.67004 22.0929 8.67004 21.0554C7.99712 21.0269 2.88581 19.9581 2.41334 15.8682C2.03536 12.5962 4.26983 10.5431 5.43431 9.92559C4.54663 10.6666 2.98317 12.8926 3.83076 15.8682C4.67835 18.8437 8.21188 19.9771 9.8727 20.1719V29.1356Z" fill="white"/>
<path d="M33.7112 22.1812V32C32.7901 31.4252 29.8856 30.1275 25.6362 29.5346C20.3244 28.7936 15.7142 30.1902 14.2252 30.6177C21.6015 25.6128 29.5257 27.6678 32.5658 29.3209V21.2692C34.0977 21.1616 37.4251 20.2016 38.4789 17.222C39.5326 14.2424 37.9252 11.8287 36.9898 10.9944C38.2164 11.6499 40.5148 13.8132 39.8963 17.222C39.2778 20.6307 35.5152 21.9485 33.7112 22.1812Z" fill="white"/>
<path d="M3.57305 8.10149C-0.504547 12.0917 1.10091 16.6424 2.41334 18.419C2.2988 18.343 2.00959 18.1141 1.76906 17.8063C-0.536045 14.3006 -0.206745 11.6499 0.623664 9.51232C4.47504 2.41544 11.6194 4.5388 12.0346 4.65281C21.678 -5.33697 29.9171 3.78351 30.4754 4.33929C36.4315 3.64101 39.3522 7.73097 39.6386 8.20125C35.2145 3.98302 31.8069 5.90688 31.1483 6.17764C26.0227 0.890612 22.5293 1.16138 18.9213 2.21593C15.3133 3.27049 13.3948 5.50785 12.9939 5.84987C9.82975 5.16584 6.37926 5.4081 3.57305 8.10149Z" fill="white"/>
<path d="M26.3663 26.827C25.6562 26.8156 25.345 26.1477 25.2782 25.8152L25.8939 20.2859H25.135C22.5808 10.9146 25.4548 7.58371 27.2111 7.08969L27.2683 16.823L27.5547 25.9434C27.4545 26.2427 27.0765 26.8384 26.3663 26.827Z" fill="white"/>
<path d="M16.3585 27.6963C15.614 27.7191 15.2847 26.9552 15.2131 26.5705V26.4422C15.3658 23.2975 15.6712 16.8743 15.6712 16.3384C14.3082 15.4834 14.0438 14.7661 14.082 14.5143V8.17274C14.5287 7.44311 14.9649 7.86873 15.1272 8.17274V13.3458C15.4708 14.0184 15.7667 13.626 15.8717 13.3458V8.17274C16.2955 7.3975 16.6782 7.84973 16.8166 8.17274V13.3458C17.1832 14.0526 17.5039 13.6403 17.6184 13.3458V8.17274C18.1109 7.4089 18.5013 7.85448 18.6349 8.17274C18.7304 9.88284 18.864 13.5453 18.6349 14.5143C18.4059 15.4834 17.4514 16.1342 17.0028 16.3384L17.4609 26.5705C17.4036 26.9362 17.103 27.6735 16.3585 27.6963Z" fill="white"/>
</svg>
