<svg width="50" height="40" viewBox="0 0 50 40" fill="none" xmlns="http://www.w3.org/2000/svg">
<path d="M12.3409 36.4195L10.8912 39.2875C10.8733 35.5051 10.8376 27.6161 10.8376 26.3193C9.9964 26.2836 3.60726 24.9476 3.01667 19.8352C2.5442 15.7452 5.33728 13.1789 6.79288 12.407C5.68329 13.3333 3.72896 16.1157 4.78845 19.8352C5.84794 23.5546 10.2649 24.9714 12.3409 25.2148V36.4195Z" fill="black"/>
<path d="M42.139 27.7265V40C40.9876 39.2815 37.3569 37.6593 32.0452 36.9183C25.4055 35.992 19.6427 37.7377 17.7815 38.2721C27.0019 32.016 36.9071 34.5847 40.7072 36.6511V26.5865C42.6222 26.452 46.7814 25.252 48.0986 21.5275C49.4158 17.803 47.4066 14.7859 46.2373 13.743C47.7705 14.5624 50.6435 17.2665 49.8703 21.5275C49.0972 25.7884 44.3939 27.4356 42.139 27.7265Z" fill="black"/>
<path d="M4.46631 10.1269C-0.630684 15.1146 1.37614 20.803 3.01667 23.0238C2.8735 22.9288 2.51198 22.6426 2.21132 22.2578C-0.670056 17.8757 -0.258431 14.5624 0.77958 11.8904C5.5938 3.0193 14.5243 5.6735 15.0433 5.81601C27.0975 -6.67121 37.3963 4.72939 38.0943 5.42412C45.5393 4.55126 49.1903 9.66371 49.5482 10.2516C44.0181 4.97878 39.7587 7.38359 38.9354 7.72205C32.5284 1.11326 28.1616 1.45172 23.6516 2.76991C19.1416 4.08811 16.7435 6.88482 16.2424 7.31234C12.2872 6.4573 7.97407 6.76012 4.46631 10.1269Z" fill="black"/>
<path d="M32.9579 33.5337C32.0702 33.5195 31.6813 32.6846 31.5978 32.269L32.3673 25.3574H31.4188C28.226 13.6432 31.8185 9.47964 34.0138 8.86211L34.0854 21.0287L34.4434 32.4293C34.3181 32.8034 33.8456 33.548 32.9579 33.5337Z" fill="black"/>
<path d="M20.4481 34.6203C19.5175 34.6488 19.1058 33.694 19.0164 33.2131V33.0528C19.2073 29.1219 19.5891 21.0928 19.5891 20.423C17.8853 19.3542 17.5548 18.4576 17.6025 18.1429V10.2159C18.1609 9.30388 18.7062 9.83591 18.909 10.2159V16.6822C19.3385 17.523 19.7084 17.0325 19.8396 16.6822V10.2159C20.3694 9.24688 20.8478 9.81216 21.0208 10.2159V16.6822C21.479 17.5658 21.8798 17.0504 22.023 16.6822V10.2159C22.6387 9.26113 23.1266 9.8181 23.2937 10.2159C23.413 12.3535 23.58 16.9316 23.2937 18.1429C23.0073 19.3542 21.8142 20.1677 21.2535 20.423L21.8261 33.2131C21.7546 33.6703 21.3787 34.5918 20.4481 34.6203Z" fill="black"/>
</svg>
