<svg width="20" height="20" viewBox="0 0 20 20" fill="none" xmlns="http://www.w3.org/2000/svg">
<g clip-path="url(#clip0_71_4848)">
<path d="M15.124 12.5907L13.4536 13.5317C13.2531 13.6446 13.0212 13.6887 12.7933 13.6574C12.5654 13.6261 12.354 13.5211 12.1913 13.3584L6.61599 7.78302C6.45338 7.62033 6.34843 7.40893 6.31714 7.18105C6.28584 6.95317 6.32991 6.72131 6.44263 6.5208L7.38371 4.85035C7.55311 4.5497 7.61943 4.20187 7.57254 3.85998C7.52566 3.5181 7.36815 3.20096 7.12407 2.95701L4.62039 0.453332C4.47365 0.306516 4.29942 0.190052 4.10765 0.110592C3.91589 0.0311325 3.71034 -0.00976562 3.50277 -0.00976562C3.29519 -0.00976562 3.08965 0.0311325 2.89788 0.110592C2.70611 0.190052 2.53188 0.306516 2.38514 0.453332L1.24834 1.58933C0.58357 2.25409 0.160127 3.12201 0.0453375 4.05509C-0.0694517 4.98816 0.131003 5.93284 0.614828 6.73889L1.18523 7.68956C4.09812 12.5443 8.20958 16.5691 13.1252 19.3779L13.2379 19.4426C14.9171 20.4021 16.9918 20.1225 18.3363 18.7788L19.5234 17.5916C19.6703 17.4449 19.7867 17.2707 19.8662 17.0789C19.9456 16.8871 19.9865 16.6816 19.9865 16.474C19.9865 16.2664 19.9456 16.0609 19.8662 15.8691C19.7867 15.6774 19.6703 15.5031 19.5234 15.3564L17.0182 12.8511C16.7743 12.6067 16.457 12.4489 16.115 12.4019C15.7729 12.3549 15.4248 12.4212 15.124 12.5907Z" fill="black"/>
</g>
<defs>
<clipPath id="clip0_71_4848">
<rect width="20" height="20" fill="white"/>
</clipPath>
</defs>
</svg>
