<svg width="21" height="20" viewBox="0 0 21 20" fill="none" xmlns="http://www.w3.org/2000/svg">
<path d="M10.417 16.5914H10.417C10.1936 16.5896 9.93486 16.6776 9.71563 16.7649C9.47384 16.8612 9.19139 16.9948 8.88962 17.1467C8.47453 17.3556 7.99875 17.6117 7.51406 17.8726C7.29683 17.9895 7.07781 18.1074 6.86166 18.2224C6.15204 18.6001 5.46965 18.9492 4.92438 19.1704C4.64986 19.2819 4.43286 19.3513 4.27703 19.3803C4.26598 19.3823 4.25561 19.3841 4.2459 19.3856C4.24458 19.3763 4.24329 19.3663 4.24207 19.3557C4.22407 19.1989 4.22692 18.9719 4.25308 18.6775C4.30503 18.0928 4.43914 17.3398 4.59272 16.5522C4.63949 16.3124 4.68815 16.069 4.73641 15.8276C4.84412 15.2888 4.94987 14.7598 5.02821 14.3026C5.08516 13.9703 5.13021 13.6617 5.15153 13.4027C5.17084 13.1681 5.17926 12.8949 5.11172 12.6817C5.04419 12.4685 4.88001 12.2499 4.72907 12.069C4.56248 11.8693 4.34785 11.6426 4.10978 11.4033C3.78228 11.074 3.39102 10.7018 2.99245 10.3225C2.81386 10.1526 2.63381 9.98132 2.45737 9.81186C1.87797 9.25537 1.33432 8.71592 0.954872 8.26709C0.763816 8.04111 0.630622 7.85685 0.555017 7.71818C0.550094 7.70915 0.545572 7.7006 0.541419 7.69251C0.549833 7.68841 0.558855 7.68416 0.568515 7.67976C0.712681 7.61411 0.9303 7.5466 1.21919 7.48042C1.79296 7.34897 2.55255 7.24349 3.35089 7.14582C3.59401 7.11608 3.84111 7.08702 4.0862 7.05821C4.63323 6.99389 5.17019 6.93076 5.6303 6.86379C5.96475 6.81512 6.27282 6.76251 6.52616 6.70274C6.7558 6.64856 7.01831 6.57225 7.20025 6.44262C7.38233 6.31291 7.54 6.08974 7.66591 5.89054C7.80482 5.67079 7.95467 5.39709 8.10932 5.09728C8.32206 4.68484 8.55611 4.19862 8.79452 3.70332C8.90134 3.48141 9.00904 3.25768 9.11609 3.03794C9.46763 2.31634 9.81398 1.63396 10.1246 1.13533C10.2811 0.884291 10.4156 0.700985 10.5245 0.586362C10.5323 0.578152 10.5397 0.570575 10.5467 0.563592C10.5536 0.570677 10.5609 0.57836 10.5685 0.586681C10.6756 0.703038 10.8071 0.888482 10.9594 1.14201C11.262 1.64557 11.5972 2.33343 11.937 3.06061C12.0405 3.28202 12.1445 3.50745 12.2477 3.73104C12.4781 4.23013 12.7043 4.72007 12.9103 5.1359C13.0601 5.43817 13.2055 5.71424 13.3408 5.93621C13.4635 6.13742 13.6175 6.3631 13.7975 6.49574L13.7975 6.49576C13.9773 6.6283 14.2386 6.70882 14.4673 6.76668C14.7197 6.83052 15.0268 6.88808 15.3605 6.94213C15.8194 7.01648 16.3552 7.08825 16.9011 7.16136C17.1457 7.19412 17.3924 7.22716 17.635 7.26081C18.4317 7.37132 19.1895 7.48902 19.7611 7.62969C20.0489 7.70051 20.2654 7.77152 20.4084 7.83948C20.418 7.84402 20.4269 7.84841 20.4353 7.85263C20.431 7.86065 20.4263 7.86913 20.4213 7.87807C20.3434 8.01551 20.2073 8.19759 20.0126 8.42047C19.6259 8.86313 19.0736 9.39376 18.4853 9.94085C18.3061 10.1075 18.1233 10.2759 17.942 10.4429C17.5373 10.8157 17.1401 11.1816 16.8074 11.5055C16.5655 11.741 16.3472 11.9642 16.1774 12.1611C16.0235 12.3396 15.8558 12.5555 15.7849 12.7675L15.7849 12.7676C15.7139 12.9796 15.7179 13.2529 15.7334 13.4878C15.7505 13.7471 15.7906 14.0564 15.8421 14.3897C15.9131 14.8481 16.0103 15.3787 16.1092 15.9192C16.1536 16.1614 16.1983 16.4055 16.2412 16.646C16.382 17.4359 16.5039 18.1909 16.5464 18.7764C16.5678 19.0712 16.567 19.2983 16.5464 19.4547C16.545 19.4653 16.5436 19.4753 16.5421 19.4846C16.5324 19.4829 16.5221 19.481 16.511 19.4787C16.3557 19.4473 16.1399 19.3744 15.8672 19.2585C15.3256 19.0285 14.6489 18.6685 13.9455 18.2794C13.7312 18.161 13.5142 18.0396 13.2989 17.9192C12.8185 17.6505 12.3469 17.3868 11.9352 17.1712C11.6359 17.0145 11.3557 16.8764 11.1155 16.7762C10.8977 16.6854 10.6404 16.5932 10.417 16.5914ZM4.13164 19.3935C4.13164 19.3934 4.13225 19.3935 4.13339 19.3937L4.13164 19.3935ZM4.27099 19.4954C4.27156 19.4965 4.27181 19.4971 4.27179 19.4971C4.27177 19.4971 4.27148 19.4965 4.27099 19.4954ZM0.497851 7.58538C0.497872 7.58539 0.497991 7.58597 0.498147 7.58708L0.497851 7.58538ZM0.44352 7.75086C0.442698 7.75168 0.442238 7.75209 0.442214 7.75209L0.44352 7.75086ZM10.4622 0.490153C10.4612 0.489636 10.4606 0.489329 10.4606 0.489304L10.4622 0.490153ZM10.634 0.490715C10.634 0.490739 10.6335 0.49103 10.6325 0.491517L10.634 0.490715ZM20.5335 7.91382C20.5335 7.9138 20.533 7.91338 20.5322 7.91252C20.5332 7.9134 20.5336 7.91383 20.5335 7.91382ZM20.4802 7.74804C20.4804 7.74681 20.4806 7.74618 20.4806 7.74619L20.4802 7.74804ZM16.6562 19.4943C16.6563 19.4943 16.6557 19.4944 16.6543 19.4945L16.6562 19.4943Z" fill="url(#paint0_linear_101_1468)" stroke="#9D9D9D"/>
<defs>
<linearGradient id="paint0_linear_101_1468" x1="-0.000949708" y1="10.0009" x2="20.9791" y2="10.0009" gradientUnits="userSpaceOnUse">
<stop stop-color="white"/>
<stop offset="1" stop-color="white"/>
</linearGradient>
</defs>
</svg>
