<svg width="21" height="20" viewBox="0 0 21 20" fill="none" xmlns="http://www.w3.org/2000/svg">
<g clip-path="url(#clip0_101_1459)">
<path d="M16.8659 19.9381C16.1195 20.47 11.3302 17.0988 10.413 17.0914C9.49572 17.0841 4.65255 20.3777 3.91485 19.8339C3.17716 19.2901 4.91144 13.7051 4.63506 12.8327C4.35868 11.9603 -0.278354 8.38353 0.0121136 7.51568C0.302645 6.64782 6.16374 6.56721 6.91014 6.0354C7.65654 5.50365 9.63391 -0.000502223 10.5512 0.00684328C11.4684 0.0142527 13.3564 5.54951 14.0941 6.09327C14.8318 6.63696 20.6909 6.81198 20.9674 7.68437C21.2438 8.55676 16.5495 12.0584 16.259 12.9262C15.9685 13.7941 17.6123 19.4063 16.8659 19.9381Z" fill="url(#paint0_linear_101_1459)"/>
</g>
<defs>
<linearGradient id="paint0_linear_101_1459" x1="-0.000949708" y1="10.0009" x2="20.9791" y2="10.0009" gradientUnits="userSpaceOnUse">
<stop stop-color="#FCD635"/>
<stop offset="1" stop-color="#F7A928"/>
</linearGradient>
<clipPath id="clip0_101_1459">
<rect width="21" height="20" fill="white"/>
</clipPath>
</defs>
</svg>
