<svg width="20" height="20" viewBox="0 0 20 20" fill="none" xmlns="http://www.w3.org/2000/svg">
<g clip-path="url(#clip0_71_4863)">
<path d="M9.99998 0.0146484C8.02497 0.0146484 6.09432 0.600306 4.45216 1.69756C2.81 2.79482 1.53009 4.35439 0.77429 6.17906C0.0184869 8.00373 -0.179266 10.0115 0.206039 11.9486C0.591344 13.8857 1.5424 15.665 2.93894 17.0615C4.33548 18.458 6.11479 19.4091 8.05184 19.7944C9.9889 20.1797 11.9967 19.982 13.8214 19.2262C15.6461 18.4704 17.2056 17.1904 18.3029 15.5483C19.4001 13.9061 19.9858 11.9755 19.9858 10.0005C19.9858 7.35206 18.9337 4.81213 17.061 2.93943C15.1883 1.06672 12.6484 0.0146484 9.99998 0.0146484ZM13.6312 10.9083H9.99998C9.75922 10.9083 9.52831 10.8126 9.35807 10.6424C9.18782 10.4721 9.09218 10.2412 9.09218 10.0005V4.55366C9.09218 4.31289 9.18782 4.08199 9.35807 3.91174C9.52831 3.7415 9.75922 3.64585 9.99998 3.64585C10.2407 3.64585 10.4716 3.7415 10.6419 3.91174C10.8121 4.08199 10.9078 4.31289 10.9078 4.55366V9.09266H13.6312C13.8719 9.09266 14.1029 9.18831 14.2731 9.35855C14.4433 9.5288 14.539 9.7597 14.539 10.0005C14.539 10.2412 14.4433 10.4721 14.2731 10.6424C14.1029 10.8126 13.8719 10.9083 13.6312 10.9083Z" fill="black"/>
</g>
<defs>
<clipPath id="clip0_71_4863">
<rect width="20" height="20" fill="white"/>
</clipPath>
</defs>
</svg>
